:SAMPLES-PER-SECOND 30
:FRAME-RANGE 1-1390
:FULLY-SPECIFIED
:DEGREES
1260
root  15.9424 36.0325 -63.3787 -6.39734 -30.6801 -3.15576
RightUpLeg  -15.6421 -4.95526 12.9963
RightLeg  46.0404 -6.80621 -7.83101
RightFoot  -22.9243 -0.876376 -7.10092
RightToes  -2.9104e-010 0 -3.6325e-017
Spine  20.7779 -1.30279 -2.13781
Spine1  2.02344 -6.28128 7.13428
HEad  -22.7062 -16.428 10.1023
LeftShoulder1  3.23642 -5.05674 -31.8031
LeftArm  90.9533 -32.9481 -82.7339
LeftForeArm  -12.5926 -19.3126 -10.1995
LeftHand  -0.06345 3.34841 2.69246
RightShoulder  14.6532 22.8882 48.4728
RightArm  33.5447 11.2371 22.5147
RightForeArm  20.8573 21.1148 5.05476
RightHand  1.53858 7.80709 13.0593
LeftUpLeg  -94.5353 29.6371 -70.1226
LeftLeg  123.806 -9.85875 12.9043
LeftFoot  8.97405 -0.3074 1.41006
LeftToes  5.45371e-012 -1.3743e-010 1.09575e-010
1261
root  15.8147 35.8702 -63.0076 -6.50641 -30.1839 -4.17017
RightUpLeg  -14.7229 -6.14898 13.6206
RightLeg  46.8189 -6.6055 -7.82079
RightFoot  -24.0981 -0.966485 -7.17588
RightToes  -2.9104e-010 0 -3.6325e-017
Spine  21.1075 -1.81893 -2.36166
Spine1  1.88511 -7.01655 8.43734
HEad  -21.622 -16.2641 9.54603
LeftShoulder1  3.26218 -5.00448 -32.3389
LeftArm  84.531 -34.6495 -83.1104
LeftForeArm  -8.35275 -17.6296 -11.8375
LeftHand  -0.0427242 3.61097 1.59076
RightShoulder  13.9007 21.7791 48.0164
RightArm  34.3173 11.8843 22.7654
RightForeArm  19.035 23.1684 4.10275
RightHand  1.61085 7.67492 13.8282
LeftUpLeg  -94.6705 31.2848 -71.5352
LeftLeg  122.452 -11.6561 15.9663
LeftFoot  7.85335 -0.353368 1.80673
LeftToes  5.45371e-012 -1.3743e-010 1.09575e-010
1262
root  15.6037 36.2118 -62.6265 -6.08307 -30.2029 -4.38885
RightUpLeg  -13.1029 -5.84377 13.6631
RightLeg  44.4856 -6.85912 -7.47959
RightFoot  -23.462 -0.885985 -6.8402
RightToes  -2.9104e-010 0 -3.6325e-017
Spine  20.2527 -1.87521 -2.95069
Spine1  1.25912 -7.13739 8.99834
HEad  -19.4069 -16.9332 9.00318
LeftShoulder1  3.27068 -5.10884 -31.9731
LeftArm  75.8139 -35.9181 -83.8117
LeftForeArm  0.447469 -15.2222 -13.6685
LeftHand  -0.0301976 4.03999 0.762762
RightShoulder  14.0783 22.1386 47.939
RightArm  36.0535 11.0553 22.9685
RightForeArm  23.1874 24.0459 3.92534
RightHand  1.38536 7.17419 12.3538
LeftUpLeg  -95.8408 31.6873 -73.3102
LeftLeg  123.884 -6.14853 7.95083
LeftFoot  7.67349 0.446604 -2.94609
LeftToes  5.45371e-012 -1.3743e-010 1.09575e-010
1263
root  15.3312 37.0714 -62.2906 -6.08197 -30.2575 -3.57953
RightUpLeg  -9.90148 -5.16487 12.6861
RightLeg  38.6429 -7.15937 -6.3809
RightFoot  -20.8176 -0.665385 -6.32235
RightToes  -2.9104e-010 0 -3.6325e-017
Spine  19.2244 -1.72346 -4.39171
Spine1  1.01806 -7.1715 9.13631
HEad  -19.0216 -17.5232 9.66193
LeftShoulder1  3.26427 -5.1375 -31.7725
LeftArm  80.0243 -34.4621 -82.7582
LeftForeArm  -3.02821 -16.5351 -12.647
LeftHand  -0.0296373 4.144 0.718689
RightShoulder  14.0829 22.1586 47.9166
RightArm  37.0062 10.4886 24.0877
RightForeArm  24.5587 23.5705 3.79741
RightHand  1.33636 7.15281 11.929
LeftUpLeg  -96.8869 31.976 -75.0342
LeftLeg  125.211 -2.47997 2.78952
LeftFoot  6.99617 1.13543 -7.29281
LeftToes  5.45371e-012 -1.3743e-010 1.09575e-010
1264
root  15.0625 38.1397 -61.9776 -6.24689 -30.1829 -1.96368
RightUpLeg  -6.55755 -4.30181 10.8677
RightLeg  31.6978 -7.12439 -4.9726
RightFoot  -16.5025 -0.337787 -5.01748
RightToes  -2.9104e-010 0 -3.6325e-017
Spine  18.656 -1.45311 -5.44859
Spine1  -0.341314 -6.76198 8.03647
HEad  -19.3663 -18.5801 10.4072
LeftShoulder1  3.23501 -5.0011 -32.0343
LeftArm  84.8909 -32.355 -81.0941
LeftForeArm  -8.84179 -18.1104 -11.3464
LeftHand  -0.0214547 3.44979 0.168241
RightShoulder  13.5153 20.9554 48.2775
RightArm  37.607 9.43771 25.0899
RightForeArm  23.8399 23.2752 3.85289
RightHand  1.36632 7.21479 12.1393
LeftUpLeg  -97.163 31.5903 -76.2978
LeftLeg  126.409 -2.50987 2.70021
LeftFoot  7.84418 1.71723 -10.4227
LeftToes  5.45371e-012 -1.3743e-010 1.09575e-010
1265
root  14.876 39.1925 -61.6821 -6.48212 -30.0966 -0.157654
RightUpLeg  -4.28107 -5.28412 8.35455
RightLeg  26.2323 -5.08594 -2.95594
RightFoot  -10.945 -0.063752 -2.95858
RightToes  -2.9104e-010 0 -3.6325e-017
Spine  18.0411 -1.12314 -6.11707
Spine1  -1.37871 -6.22447 6.72789
HEad  -19.3915 -19.4782 10.0932
LeftShoulder1  3.21029 -4.98026 -31.8355
LeftArm  87.0009 -31.2901 -80.9976
LeftForeArm  -10.6672 -18.7288 -10.7613
LeftHand  -0.0088371 3.10457 -0.425778
RightShoulder  13.0629 20.1987 48.1633
RightArm  38.9514 8.14486 25.509
RightForeArm  20.9934 23.0562 4.02899
RightHand  1.44228 7.28952 12.7491
LeftUpLeg  -96.4995 30.4027 -76.3654
LeftLeg  127.322 -4.47133 4.98798
LeftFoot  10.0616 2.02459 -11.0138
LeftToes  5.45371e-012 -1.3743e-010 1.09575e-010
1266
root  15.252 40.2521 -61.4661 -7.0119 -29.6187 1.45129
RightUpLeg  -3.05257 -7.51543 5.08012
RightLeg  22.2553 -2.24664 -1.23446
RightFoot  -4.02949 -0.0527534 0.396861
RightToes  -2.9104e-010 0 -3.6325e-017
Spine  18.7849 -1.42129 -6.03638
Spine1  -1.59139 -5.73888 6.07684
HEad  -19.4505 -19.6437 9.13922
LeftShoulder1  3.20716 -5.10477 -31.2494
LeftArm  85.3102 -31.2078 -82.1826
LeftForeArm  -6.78311 -18.155 -11.174
LeftHand  -0.0103979 3.09338 -0.338349
RightShoulder  12.9846 20.3794 47.4967
RightArm  40.5751 7.32022 25.845
RightForeArm  18.2863 22.3139 4.43263
RightHand  1.49315 7.29776 13.1982
LeftUpLeg  -93.81 27.0491 -74.0465
LeftLeg  125.701 -7.07247 8.59762
LeftFoot  13.9125 2.6504 -12.1782
LeftToes  5.45371e-012 -1.3743e-010 1.09575e-010
1267
root  15.5421 40.9048 -61.3047 -7.08582 -30.0596 2.07233
RightUpLeg  -3.37212 -7.73237 3.57518
RightLeg  21.2738 -1.6027 -0.904008
RightFoot  1.28947 -0.412046 3.80039
RightToes  -2.9104e-010 0 -3.6325e-017
Spine  19.5964 -1.36232 -5.3376
Spine1  -1.79982 -5.09474 5.64993
HEad  -19.3436 -19.2109 8.44182
LeftShoulder1  3.17281 -5.13368 -30.7224
LeftArm  88.3012 -31.0067 -83.1102
LeftForeArm  -8.97708 -18.8226 -10.5483
LeftHand  -0.00812875 3.05537 -0.449647
RightShoulder  13.1729 20.8419 47.2561
RightArm  40.6305 7.32152 25.8157
RightForeArm  17.6359 21.39 5.04374
RightHand  1.56916 7.64534 13.4962
LeftUpLeg  -93.0001 24.1568 -72.2166
LeftLeg  124.325 -8.88382 11.4063
LeftFoot  15.8017 2.73772 -11.7143
LeftToes  5.45371e-012 -1.3743e-010 1.09575e-010
1268
root  15.5855 41.0663 -61.1383 -7.1145 -30.3219 2.51355
RightUpLeg  -4.13722 -6.52176 3.04835
RightLeg  21.3628 -5.6353 -2.64447
RightFoot  2.27871 -0.66274 5.67497
RightToes  -2.9104e-010 0 -3.6325e-017
Spine  19.9385 -1.1838 -5.58072
Spine1  -1.87114 -4.94842 5.89183
HEad  -18.8658 -18.5862 8.26206
LeftShoulder1  3.133 -5.13154 -30.2647
LeftArm  92.679 -30.7734 -83.5303
LeftForeArm  -13.5187 -19.8816 -9.57235
LeftHand  -0.00528974 2.90254 -0.507683
RightShoulder  13.2986 21.0351 47.3292
RightArm  40.0931 7.94297 25.6745
RightForeArm  18.0545 20.8413 5.45052
RightHand  1.52579 7.61693 13.1465
LeftUpLeg  -92.8434 22.1247 -71.1168
LeftLeg  123.521 -9.29945 12.2958
LeftFoot  15.2172 2.72203 -11.8989
LeftToes  5.45371e-012 -1.3743e-010 1.09575e-010
1269
root  15.4023 40.7895 -60.9208 -7.20111 -30.1122 2.53882
RightUpLeg  -3.82495 -6.82498 3.01242
RightLeg  19.334 -7.46117 -2.88696
RightFoot  -0.183804 -0.47438 4.83997
RightToes  -2.9104e-010 0 -3.6325e-017
Spine  20.1641 -0.997234 -5.93789
Spine1  -2.07999 -5.25402 6.3319
HEad  -18.4705 -18.3451 8.22178
LeftShoulder1  3.15473 -5.16793 -30.3646
LeftArm  92.8445 -31.1828 -83.8219
LeftForeArm  -13.7046 -19.8628 -9.60763
LeftHand  -0.0100231 3.02116 -0.326502
RightShoulder  13.2386 20.9875 47.2053
RightArm  39.348 8.57106 25.5938
RightForeArm  18.9527 20.5522 5.64505
RightHand  1.51711 7.79866 12.8822
LeftUpLeg  -92.5982 21.3407 -70.2037
LeftLeg  123.522 -7.91522 10.4516
LeftFoot  13.7255 2.69019 -12.4434
LeftToes  5.45371e-012 -1.3743e-010 1.09575e-010
1270
root  15.1262 40.1344 -60.6694 -7.15924 -30.2994 2.04095
RightUpLeg  -3.50973 -8.39598 3.568
RightLeg  17.9856 -8.32241 -2.10083
RightFoot  -4.85989 0.0118086 -0.790727
RightToes  -2.9104e-010 0 -3.6325e-017
Spine  20.2688 -0.642657 -5.53893
Spine1  -2.32334 -5.43058 6.47303
HEad  -17.9844 -18.5519 7.87827
LeftShoulder1  3.18171 -5.24723 -30.3434
LeftArm  90.0509 -32.0747 -84.6476
LeftForeArm  -10.5562 -19.0575 -10.372
LeftHand  -0.0206268 3.25972 0.164193
RightShoulder  13.2447 21.2281 46.7506
RightArm  39.0049 8.92932 25.623
RightForeArm  19.3156 20.7215 5.481
RightHand  1.47933 7.93617 12.4193
LeftUpLeg  -93.0358 21.8745 -69.3829
LeftLeg  124.062 -5.95335 7.63568
LeftFoot  11.8443 2.66959 -13.3204
LeftToes  5.45371e-012 -1.3743e-010 1.09575e-010
1271
root  14.8021 39.1047 -60.4177 -6.89801 -31.4557 1.03491
RightUpLeg  -4.19336 -9.81202 5.22006
RightLeg  21.8975 -7.43959 -2.62951
RightFoot  -13.1956 -0.163044 -4.56471
RightToes  -2.9104e-010 0 -3.6325e-017
Spine  20.3031 0.0438487 -4.45923
Spine1  -2.45201 -5.20983 6.49935
HEad  -17.9604 -18.5276 7.43163
LeftShoulder1  3.17478 -5.31702 -29.9722
LeftArm  87.3985 -33.0093 -85.4428
LeftForeArm  -7.9916 -18.2537 -11.1361
LeftHand  -0.0270659 3.50642 0.517644
RightShoulder  13.6071 21.9572 46.6364
RightArm  39.3461 9.3969 25.3308
RightForeArm  19.2368 21.2729 5.05188
RightHand  1.44791 7.74135 12.339
LeftUpLeg  -94.9431 23.6678 -68.9224
LeftLeg  125.099 -4.40537 5.33444
LeftFoot  10.4077 2.44381 -13.0087
LeftToes  5.45371e-012 -1.3743e-010 1.09575e-010
1272
root  14.6174 38.132 -60.2555 -6.21265 -33.4997 -2.31659
RightUpLeg  -6.72296 -8.7961 9.34213
RightLeg  30.1558 -7.46779 -4.91972
RightFoot  -17.3558 -0.411142 -5.58922
RightToes  -2.9104e-010 0 -3.6325e-017
Spine  21.6398 0.291052 -0.356515
Spine1  -1.97565 -4.76342 5.45228
HEad  -21.0657 -17.2303 7.77256
LeftShoulder1  3.09963 -4.88996 -30.9177
LeftArm  87.8867 -34.2261 -84.5472
LeftForeArm  -8.76868 -18.2995 -11.1319
LeftHand  -0.0427476 3.65422 1.6183
RightShoulder  14.4858 23.0005 47.6996
RightArm  38.5962 11.3493 24.2909
RightForeArm  20.1291 20.8497 5.36509
RightHand  1.40222 7.56388 12.1129
LeftUpLeg  -97.2729 27.4633 -66.6194
LeftLeg  125.935 -3.40378 3.89721
LeftFoot  9.06959 1.66465 -9.53889
LeftToes  5.45371e-012 -1.3743e-010 1.09575e-010
1273
root  14.6282 37.5302 -60.0258 -4.71027 -33.9737 -3.71057
RightUpLeg  -9.58227 -10.2878 10.2473
RightLeg  35.0796 -5.59958 -4.48813
RightFoot  -20.038 -0.550642 -5.45542
RightToes  -2.9104e-010 0 -3.6325e-017
Spine  20.3993 -0.0770288 0.249356
Spine1  0.530311 -5.51524 6.62498
HEad  -24.4327 -14.6539 7.94999
LeftShoulder1  3.1575 -4.8838 -31.6399
LeftArm  90.9003 -34.1864 -83.0259
LeftForeArm  -12.9888 -19.1757 -10.3875
LeftHand  -0.0650439 3.35769 2.79782
RightShoulder  15.4518 24.6179 47.9213
RightArm  36.4393 13.2806 23.5409
RightForeArm  22.9214 19.5887 6.36386
RightHand  1.36076 7.40327 11.9018
LeftUpLeg  -97.8554 29.6567 -66.387
LeftLeg  125.386 -3.27599 3.81383
LeftFoot  4.73576 0.523133 -3.90781
LeftToes  5.45371e-012 -1.3743e-010 1.09575e-010
